<svg width="32" height="32" viewBox="0 0 32 32" fill="none" xmlns="http://www.w3.org/2000/svg">
<path fill-rule="evenodd" clip-rule="evenodd" d="M12.0451 7.15058L12.5383 7.64379C13.0143 8.11977 13.8572 8.41416 15.0038 8.52001C16.1283 8.62382 17.4258 8.53585 18.6764 8.36345C19.9217 8.19177 21.0923 7.94042 21.9537 7.73118C22.3836 7.62673 22.7347 7.53322 22.9773 7.46611C23.0986 7.43257 23.1927 7.40565 23.2558 7.3873C23.2874 7.37812 23.3112 7.37109 23.3269 7.36644L23.3441 7.3613L23.348 7.36013L23.3487 7.35992C23.4353 7.33371 23.5227 7.32473 23.6072 7.33108C23.8062 7.31297 24.01 7.37896 24.1607 7.52962C24.4174 7.78632 24.4283 8.19721 24.1962 8.4762C24.174 8.53046 24.1448 8.60294 24.11 8.69199C24.0242 8.9116 23.9042 9.23135 23.7703 9.62639C23.5018 10.4184 23.1801 11.5037 22.9618 12.6861C22.7428 13.8729 22.6336 15.128 22.7706 16.2699C22.9075 17.4105 23.2832 18.3888 23.9886 19.0942L24.4818 19.5874L23.4758 20.5934L22.9826 20.1002C21.9907 19.1083 21.5319 17.7997 21.3717 16.4648C21.2117 15.1311 21.3429 13.722 21.5765 12.4568C21.6913 11.8346 21.8322 11.2401 21.9794 10.6973L8.39041 24.2863L7.40399 23.2999L21.4068 9.29706C20.6533 9.46194 19.7695 9.6312 18.8418 9.75909C17.5396 9.93862 16.1226 10.0407 14.847 9.92298C13.5936 9.80727 12.351 9.46845 11.5323 8.64977L11.0391 8.15656L12.0451 7.15058Z" fill="#B2F824"/>
</svg>
