<svg width="20" height="21" viewBox="0 0 20 21" fill="none" xmlns="http://www.w3.org/2000/svg">
<path fill-rule="evenodd" clip-rule="evenodd" d="M4.43064 1.64668C4.90288 1.74429 5.27896 2.06157 5.51262 2.48076L6.25696 3.81613C6.53114 4.30797 6.76187 4.72187 6.91255 5.08168C7.07238 5.46336 7.16731 5.83975 7.12392 6.25588C7.08052 6.67201 6.90998 7.02071 6.67483 7.3612C6.45316 7.68218 6.142 8.03958 5.77224 8.46427L3.9157 10.5968C5.38806 13.0101 7.56218 15.1852 9.97797 16.6591L12.1105 14.8025C12.5352 14.4328 12.8926 14.1216 13.2136 13.8999C13.5541 13.6648 13.9027 13.4942 14.3189 13.4508C14.735 13.4075 15.1114 13.5024 15.4931 13.6622C15.8529 13.8129 16.2668 14.0436 16.7586 14.3178L18.094 15.0621C18.5132 15.2958 18.8305 15.6719 18.9281 16.1441C19.0267 16.6213 18.8812 17.1009 18.5599 17.4951C17.3942 18.9254 15.5265 19.8361 13.5671 19.4409C12.3627 19.1979 11.1744 18.7931 9.73714 17.9689C6.84934 16.3127 4.26011 13.7221 2.60589 10.8376C1.78162 9.40037 1.37686 8.21205 1.13391 7.00766C0.73866 5.04831 1.64936 3.18058 3.07966 2.01482C3.47385 1.69354 3.95348 1.54806 4.43064 1.64668ZM11.1423 17.3028C12.1142 17.7817 12.9596 18.0431 13.8143 18.2155C15.2277 18.5006 16.6545 17.8544 17.591 16.7054C17.714 16.5545 17.7147 16.4492 17.704 16.3971C17.6922 16.3401 17.6444 16.2426 17.4854 16.154L16.18 15.4263C15.6503 15.1311 15.2976 14.9356 15.0102 14.8152C14.7374 14.701 14.5809 14.6803 14.4485 14.6941C14.3162 14.7079 14.1673 14.7604 13.9239 14.9285C13.6675 15.1055 13.3628 15.3696 12.9054 15.7678L11.1423 17.3028ZM3.27197 9.43251L4.80696 7.66935C5.20515 7.21196 5.46922 6.90725 5.64628 6.65087C5.81434 6.40751 5.86686 6.25859 5.88066 6.12623C5.89446 5.99387 5.8738 5.83732 5.75956 5.56452C5.63921 5.27713 5.44369 4.92449 5.14844 4.39478L4.42079 3.08936C4.33214 2.93032 4.23465 2.88259 4.17764 2.87081C4.12555 2.86005 4.02024 2.8608 3.86938 2.98376C2.7204 3.92023 2.07411 5.34711 2.35922 6.76049C2.53163 7.61514 2.79303 8.46053 3.27197 9.43251Z" fill="#565656"/>
</svg>
