<svg width="77" height="78" viewBox="0 0 77 78" fill="none" xmlns="http://www.w3.org/2000/svg">
<rect x="0.5" y="23.8247" width="58" height="58" rx="22" transform="rotate(-23.311 0.5 23.8247)" fill="#B2F824"/>
<path d="M50.0181 34.1446L42.5845 38.3191C42.5276 38.0068 42.4353 37.6944 42.3039 37.3894C42.1725 37.0845 42.0093 36.8038 41.8209 36.547L49.9615 34.0106C50.638 33.029 51.1625 32.1058 51.4693 31.2953C53.2094 26.6976 50.9423 21.4361 46.4054 19.5432C41.8684 17.6504 36.7799 19.843 35.0397 24.4406C34.6613 25.4404 34.4087 26.809 34.2665 28.3888L37.8636 34.896C37.5597 34.9466 37.2566 35.0335 36.9616 35.1606C36.6666 35.2877 36.3962 35.4479 36.1498 35.6345L33.8906 28.5508C32.6447 27.5691 31.4765 26.8127 30.4899 26.4011C25.953 24.5083 20.8644 26.7009 19.1242 31.2985C17.384 35.8962 19.6512 41.1577 24.1881 43.0506C24.9893 43.3848 26.0197 43.6381 27.1973 43.8196L34.6319 39.6447C34.6888 39.957 34.7811 40.2694 34.9125 40.5744C35.0439 40.8794 35.2071 41.16 35.3955 41.4168L27.2559 43.9528C26.5784 44.9348 26.0549 45.8576 25.7481 46.6681C24.0079 51.2658 26.2751 56.5273 30.812 58.4202C35.3489 60.313 40.4375 58.1204 42.1777 53.5228C42.5561 52.523 42.8087 51.1544 42.9508 49.5746L39.3537 43.0674C39.6576 43.0168 39.9608 42.9299 40.2557 42.8028C40.5507 42.6757 40.8211 42.5155 41.0676 42.3289L43.3267 49.4126C44.5726 50.3943 45.7409 51.1507 46.7274 51.5623C51.2643 53.4551 56.3529 51.2625 58.0931 46.6649C59.8333 42.0672 57.5661 36.8057 53.0292 34.9128C52.228 34.5786 51.1977 34.3253 50.02 34.1438L50.0181 34.1446ZM26.323 33.8572L35.2666 36.561C34.9094 37.0872 34.679 37.6958 34.5948 38.3359L26.323 33.8572ZM33.895 51.4299L36.3209 42.3416C36.844 42.7201 37.4445 42.9707 38.0724 43.0724L33.895 51.4299ZM43.318 26.5341L40.8922 35.6224C40.3691 35.2439 39.7685 34.9934 39.1407 34.8917L43.318 26.5341ZM41.9464 41.4031C42.3037 40.8769 42.5341 40.2683 42.6182 39.6281L50.8901 44.1068L41.9464 41.4031Z" fill="#131313"/>
</svg>
