<svg width="52" height="52" viewBox="0 0 52 52" fill="none" xmlns="http://www.w3.org/2000/svg">
<rect x="0.125" y="0.872803" width="51" height="51" rx="25.5" fill="#131313"/>
<path fill-rule="evenodd" clip-rule="evenodd" d="M21.6701 17.8909L22.1633 18.3841C22.6393 18.8601 23.4822 19.1545 24.6288 19.2604C25.7533 19.3642 27.0508 19.2762 28.3014 19.1038C29.5467 18.9321 30.7173 18.6808 31.5787 18.4715C32.0086 18.3671 32.3597 18.2736 32.6023 18.2065C32.7236 18.1729 32.8177 18.146 32.8808 18.1277C32.9124 18.1185 32.9362 18.1114 32.9519 18.1068L32.9691 18.1017L32.973 18.1005L32.9737 18.1003C33.0603 18.0741 33.1477 18.0651 33.2322 18.0714C33.4312 18.0533 33.635 18.1193 33.7857 18.27C34.0424 18.5267 34.0533 18.9376 33.8212 19.2166C33.799 19.2708 33.7698 19.3433 33.735 19.4324C33.6492 19.652 33.5292 19.9717 33.3953 20.3667C33.1268 21.1587 32.8051 22.244 32.5868 23.4264C32.3678 24.6132 32.2586 25.8684 32.3956 27.0102C32.5325 28.1508 32.9082 29.1291 33.6136 29.8345L34.1068 30.3277L33.1008 31.3337L32.6076 30.8405C31.6157 29.8486 31.1569 28.5401 30.9967 27.2051C30.8367 25.8715 30.9679 24.4624 31.2015 23.1971C31.3163 22.575 31.4572 21.9805 31.6044 21.4376L18.0154 35.0266L17.029 34.0402L31.0318 20.0374C30.2783 20.2023 29.3945 20.3716 28.4668 20.4995C27.1646 20.679 25.7476 20.7811 24.472 20.6633C23.2186 20.5476 21.976 20.2088 21.1573 19.3901L20.6641 18.8969L21.6701 17.8909Z" fill="#B2F824"/>
</svg>
