<svg width="20" height="21" viewBox="0 0 20 21" fill="none" xmlns="http://www.w3.org/2000/svg">
<path fill-rule="evenodd" clip-rule="evenodd" d="M5.29535 7.33973C5.47102 7.0426 5.85431 6.94414 6.15144 7.11981L8.60312 8.56934C9.30675 8.98535 9.68085 9.11615 10 9.11615C10.3192 9.11615 10.6933 8.98535 11.3969 8.56934L13.8486 7.11981C14.1457 6.94414 14.529 7.0426 14.7047 7.33973C14.8804 7.63686 14.7819 8.02014 14.4848 8.19581L12.0331 9.64534C11.3074 10.0744 10.6812 10.3661 10 10.3661C9.31886 10.3661 8.69265 10.0744 7.96694 9.64534L5.51526 8.19581C5.21813 8.02014 5.11967 7.63686 5.29535 7.33973Z" fill="#565656"/>
<path fill-rule="evenodd" clip-rule="evenodd" d="M12.4019 4.14649C10.7953 4.10612 9.20462 4.10612 7.59801 4.14648C6.26745 4.17991 5.3377 4.20485 4.62001 4.32984C3.9304 4.44994 3.50042 4.65295 3.14687 5.00785C2.79084 5.36523 2.59098 5.78974 2.47466 6.45958C2.35317 7.15921 2.33226 8.06192 2.30462 9.35818C2.28729 10.1707 2.28729 10.9784 2.30462 11.7909C2.33227 13.0872 2.35317 13.9899 2.47466 14.6895C2.59099 15.3594 2.79085 15.7839 3.14687 16.1412C3.50042 16.4961 3.9304 16.6991 4.62001 16.8192C5.33771 16.9442 6.26746 16.9692 7.59801 17.0026C9.20462 17.043 10.7953 17.043 12.4019 17.0026C13.7325 16.9692 14.6622 16.9442 15.3799 16.8192C16.0695 16.6991 16.4995 16.4961 16.8531 16.1412C17.2091 15.7839 17.4089 15.3594 17.5253 14.6895C17.6468 13.9899 17.6677 13.0872 17.6953 11.7909C17.7126 10.9784 17.7126 10.1707 17.6953 9.3582C17.6677 8.06193 17.6468 7.15922 17.5253 6.4596C17.4089 5.78975 17.2091 5.36524 16.8531 5.00786C16.4995 4.65297 16.0695 4.44995 15.3799 4.32986C14.6622 4.20486 13.7325 4.17992 12.4019 4.14649ZM7.56661 2.89688C9.19415 2.85599 10.8058 2.85599 12.4333 2.89688L12.4818 2.8981C13.7525 2.93001 14.7749 2.95568 15.5944 3.09839C16.4523 3.2478 17.1496 3.53437 17.7386 4.12566C18.3252 4.71448 18.6103 5.40172 18.7568 6.24573C18.8964 7.04937 18.9176 8.0469 18.944 9.28261L18.945 9.33155C18.9627 10.1618 18.9627 10.9873 18.945 11.8176L18.944 11.8665C18.9176 13.1022 18.8964 14.0997 18.7568 14.9034C18.6103 15.7474 18.3252 16.4346 17.7386 17.0234C17.1496 17.6147 16.4523 17.9013 15.5944 18.0507C14.775 18.1934 13.7525 18.2191 12.4818 18.251L12.4333 18.2522C10.8058 18.2931 9.19415 18.2931 7.56662 18.2522L7.5181 18.251C6.24743 18.2191 5.22497 18.1934 4.40554 18.0507C3.54763 17.9013 2.85036 17.6147 2.26131 17.0234C1.67473 16.4346 1.38966 15.7474 1.2431 14.9034C1.10354 14.0997 1.08228 13.1022 1.05595 11.8665L1.05491 11.8176C1.0372 10.9873 1.0372 10.1618 1.05491 9.33153L1.05595 9.28259C1.08228 8.04688 1.10353 7.04936 1.24309 6.24571C1.38966 5.40171 1.67472 4.71446 2.26131 4.12565C2.85036 3.53435 3.54763 3.24779 4.40554 3.09838C5.22498 2.95567 6.24746 2.93 7.51815 2.89809L7.56661 2.89688Z" fill="#565656"/>
</svg>
