<svg width="29" height="29" viewBox="0 0 29 29" fill="none" xmlns="http://www.w3.org/2000/svg">
<rect width="29" height="29" rx="14.5" fill="#B2F824"/>
<g clip-path="url(#clip0_405_1913)">
<path fill-rule="evenodd" clip-rule="evenodd" d="M20.9999 16.866H20.4844C19.9869 16.866 19.3924 17.1527 18.7378 17.6966C18.0959 18.2301 17.4637 18.9542 16.9002 19.6979C16.3391 20.4385 15.8587 21.1816 15.5178 21.7412C15.3477 22.0205 15.2131 22.2528 15.1214 22.4147C15.0755 22.4956 15.0404 22.5589 15.017 22.6015C15.0053 22.6228 14.9965 22.6389 14.9908 22.6495L14.9844 22.6612L14.983 22.6639L14.9828 22.6643C14.9512 22.7233 14.9102 22.7737 14.8627 22.8145C14.7682 22.928 14.6272 23 14.4697 23C14.2014 23 13.9809 22.7909 13.9564 22.5238C13.9397 22.4839 13.917 22.4308 13.8887 22.366C13.8188 22.2064 13.7143 21.9766 13.5779 21.7001C13.3043 21.1459 12.9052 20.4105 12.4013 19.6784C11.8955 18.9437 11.2966 18.2306 10.6282 17.7055C9.96049 17.1809 9.25284 16.8659 8.51548 16.8659H7.99994V15.8144H8.51548C9.5523 15.8144 10.476 16.2585 11.2574 16.8725C12.0381 17.4859 12.7059 18.2909 13.2452 19.0742C13.5103 19.4594 13.7474 19.8438 13.9542 20.2044V6H14.9853V20.637C15.2929 20.157 15.6664 19.6066 16.0844 19.0549C16.6711 18.2805 17.3583 17.4865 18.0865 16.8814C18.8021 16.2868 19.6286 15.8144 20.4844 15.8144H20.9999V16.866Z" fill="#131313"/>
</g>
<defs>
<clipPath id="clip0_405_1913">
<rect width="20" height="20" fill="white" transform="translate(0.357849 14.5) rotate(-45)"/>
</clipPath>
</defs>
</svg>
