<svg width="135" height="33" viewBox="0 0 135 33" fill="none" xmlns="http://www.w3.org/2000/svg">
<path d="M130.718 8.21184H135L126.051 29.0034C125.583 30.1296 124.897 31.0106 123.994 31.6462C123.102 32.2818 122.12 32.5996 121.05 32.5996C120.314 32.5996 119.544 32.4379 118.741 32.1145C117.95 31.8023 117.269 31.3897 116.701 30.8768L118.24 27.8994C118.875 28.5685 119.606 28.903 120.431 28.903C121.356 28.903 122.053 28.4068 122.522 27.4143L123.458 25.474L116.149 8.21184H120.548L125.616 20.941L130.718 8.21184Z" fill="#131313"/>
<path d="M112.452 4.13044C110.735 4.13044 109.876 4.92775 109.876 6.52238V8.2118H114.526V11.691H109.876V25.6747H106.046V11.691H103.085V8.2118H106.046V6.28821C106.046 4.49285 106.514 3.09895 107.451 2.10649C108.387 1.10287 109.776 0.601067 111.616 0.601067C112.775 0.601067 113.829 0.840819 114.777 1.32032V4.71588C114.086 4.32559 113.311 4.13044 112.452 4.13044Z" fill="#131313"/>
<path d="M97.8495 5.25117C97.1581 5.25117 96.5782 5.01699 96.1099 4.54864C95.6415 4.08029 95.4074 3.506 95.4074 2.82577C95.4074 2.12324 95.6415 1.54338 96.1099 1.08618C96.5782 0.628976 97.1581 0.400375 97.8495 0.400375C98.552 0.400375 99.1375 0.628976 99.6058 1.08618C100.074 1.54338 100.308 2.12324 100.308 2.82577C100.308 3.51715 100.074 4.09702 99.6058 4.56537C99.1375 5.02257 98.552 5.25117 97.8495 5.25117ZM95.9259 25.6747V8.21183H99.7731V25.6747H95.9259Z" fill="#131313"/>
<path d="M92.43 7.92746H93.0824V11.875H92.43C90.735 11.875 89.4025 12.3545 88.4323 13.3135C87.4733 14.2614 86.9938 15.5493 86.9938 17.1774V25.6747H83.1466V8.21181H86.9938V10.771C88.3877 8.87531 90.1998 7.92746 92.43 7.92746Z" fill="#131313"/>
<path d="M53.7267 26.5277C55.4217 26.5277 56.8323 26.9682 57.9586 27.8492C59.0849 28.7413 59.7762 29.9568 60.0327 31.4956L56.0517 32.5661C56.0071 31.8636 55.706 31.3005 55.1485 30.8767C54.5909 30.4641 53.8772 30.2578 53.0074 30.2578H47.0025C45.4525 30.2578 44.1979 29.8452 43.2389 29.0201C42.2799 28.206 41.8004 27.1355 41.8004 25.8085C41.8004 24.9387 42.0067 24.1246 42.4193 23.3664C42.8319 22.5969 43.3895 22.0059 44.092 21.5933C42.5197 20.1325 41.7335 18.3093 41.7335 16.1236C41.7335 13.9491 42.5085 12.1315 44.0585 10.6707C45.6086 9.20985 47.5377 8.47944 49.846 8.47944C51.2734 8.47944 52.6004 8.7861 53.827 9.39942C54.0501 8.46272 54.5407 7.72673 55.299 7.19147C56.0684 6.65621 57.0052 6.38858 58.1091 6.38858H59.5142V9.95141H58.3099C57.7746 9.95141 57.323 10.0908 56.955 10.3696C56.5981 10.6372 56.3974 10.9996 56.3528 11.4568C57.4345 12.8061 57.9753 14.3617 57.9753 16.1236C57.9753 18.287 57.1947 20.099 55.6335 21.5599C54.0724 23.0207 52.1432 23.7511 49.846 23.7511C48.6529 23.7511 47.5712 23.5615 46.601 23.1824C45.9766 23.595 45.6643 24.1525 45.6643 24.8551C45.6643 25.3457 45.8539 25.7472 46.233 26.0594C46.6122 26.3716 47.1084 26.5277 47.7217 26.5277H53.7267ZM49.846 12.1092C48.6529 12.1092 47.6548 12.4939 46.8519 13.2633C46.0602 14.0216 45.6643 14.975 45.6643 16.1236C45.6643 17.2611 46.0602 18.2145 46.8519 18.9839C47.6548 19.7422 48.6529 20.1214 49.846 20.1214C51.0281 20.1214 52.015 19.7366 52.8067 18.9672C53.5984 18.1978 53.9943 17.2499 53.9943 16.1236C53.9943 14.975 53.5984 14.0216 52.8067 13.2633C52.015 12.4939 51.0281 12.1092 49.846 12.1092Z" fill="#131313"/>
<path d="M34.2567 26.3605V1.68839H38.1039V26.3605H34.2567Z" fill="#131313"/>
<path fill-rule="evenodd" clip-rule="evenodd" d="M17.8166 6.28824H9.38166C6.85693 6.37431 4.94904 6.9768 3.65799 8.09571C2.36693 9.18594 1.4345 10.434 0.860703 11.8398C0.286901 13.2169 0 14.6227 0 16.0572C0 17.5491 0.272556 18.9979 0.817667 20.4038C1.39147 21.7809 2.3239 23.0289 3.61495 24.1478C4.93469 25.238 6.59872 25.7975 8.60703 25.8262H19.4519C20.2552 25.8262 20.9294 25.5393 21.4745 24.9655C22.0483 24.4204 22.3352 23.7462 22.3352 22.9428C22.3352 22.1395 22.0483 21.4653 21.4745 20.9202C20.9294 20.3464 20.2552 20.0595 19.4519 20.0595H8.43489C7.88977 20.0595 7.41639 19.8443 7.01473 19.414C6.61307 18.9549 6.31182 18.4385 6.11099 17.8647C5.93885 17.2622 5.85278 16.674 5.85278 16.1002C5.85278 15.4978 5.93885 14.9096 6.11099 14.3358C6.31182 13.7333 6.61307 13.2169 7.01473 12.7865C7.41639 12.3275 7.88977 12.0836 8.43489 12.0549H17.8166V6.28824ZM24.6161 15.2396V23.5453C24.7882 25.2667 25.735 26.1992 27.4564 26.3426C28.2597 26.3426 28.9483 26.0844 29.5221 25.568C30.1246 25.0229 30.4258 24.3486 30.4258 23.5453V15.2396H24.6161Z" fill="#131313"/>
<path d="M30.376 14.5848H27.0306C22.4486 14.5848 18.7341 10.8703 18.7341 6.28825H22.2122C26.773 6.28825 30.4496 10.0245 30.376 14.5848Z" fill="#B2F824"/>
<path d="M71.5896 26.0316C68.9478 26.0316 66.7426 25.1667 64.9741 23.4371C63.2055 21.7074 62.3212 19.559 62.3212 16.992C62.3212 14.425 63.2055 12.2767 64.9741 10.547C66.7426 8.81728 68.9478 7.95243 71.5896 7.95243C73.314 7.95243 74.8836 8.34905 76.2985 9.14228C77.7244 9.9245 78.8408 11.0097 79.6477 12.3979C80.4546 13.775 80.8581 15.3064 80.8581 16.992C80.8581 18.6776 80.4546 20.2145 79.6477 21.6027C78.8408 22.9798 77.7244 24.065 76.2985 24.8583C74.8836 25.6405 73.314 26.0316 71.5896 26.0316ZM67.7596 20.826C68.7876 21.8506 70.0642 22.3629 71.5896 22.3629C73.115 22.3629 74.3807 21.8506 75.3865 20.826C76.4035 19.7904 76.9119 18.5124 76.9119 16.992C76.9119 15.4606 76.4035 14.1826 75.3865 13.158C74.3807 12.1224 73.115 11.6046 71.5896 11.6046C70.0642 11.6046 68.7876 12.1224 67.7596 13.158C66.7316 14.1937 66.2176 15.4716 66.2176 16.992C66.2176 18.5124 66.7316 19.7904 67.7596 20.826Z" fill="#131313"/>
</svg>
