<svg width="122" height="122" viewBox="0 0 122 122" fill="none" xmlns="http://www.w3.org/2000/svg">
<circle cx="60.9364" cy="60.9364" r="60.9364" fill="#131313"/>
<path d="M113.057 80.2336L102.122 76.2537L102.581 74.9937L113.515 78.9735L113.057 80.2336Z" fill="white"/>
<path d="M98.9378 82.5607C99.3582 81.8325 99.8817 81.2971 100.508 80.9545C101.136 80.6172 101.822 80.4734 102.568 80.5233C103.315 80.5783 104.075 80.8292 104.849 81.2762C105.623 81.7232 106.224 82.2582 106.652 82.8812C107.081 83.5094 107.314 84.1734 107.352 84.8731C107.391 85.5781 107.214 86.2717 106.82 86.954C106.593 87.3476 106.303 87.6985 105.95 88.0065C105.597 88.3146 105.182 88.5408 104.705 88.6853C104.231 88.8317 103.699 88.8591 103.109 88.7677C102.519 88.6763 101.871 88.427 101.166 88.0198L100.674 87.7357L104.037 81.9097L105.041 82.4892L102.359 87.1343C102.786 87.3805 103.216 87.5149 103.649 87.5375C104.08 87.5634 104.482 87.4764 104.856 87.2765C105.227 87.0799 105.534 86.7716 105.777 86.3517C106.044 85.8892 106.16 85.4227 106.125 84.9522C106.092 84.487 105.946 84.059 105.686 83.6683C105.426 83.2777 105.088 82.9621 104.671 82.7216L104.002 82.3352C103.431 82.0057 102.89 81.8247 102.38 81.7924C101.871 81.7652 101.41 81.8691 100.999 82.1041C100.591 82.3409 100.252 82.6939 99.981 83.163C99.8048 83.4681 99.6884 83.7683 99.6316 84.0635C99.5762 84.364 99.5834 84.6546 99.6531 84.9354C99.7261 85.2181 99.8654 85.4844 100.071 85.7343L99.1083 86.6744C98.796 86.3366 98.576 85.945 98.4483 85.4995C98.3239 85.0559 98.2997 84.5826 98.3757 84.0798C98.455 83.5788 98.6423 83.0725 98.9378 82.5607Z" fill="white"/>
<path d="M99.9746 96.2634L99.1041 95.5329L102.011 92.0683L102.882 92.7987L99.9746 96.2634ZM103.636 95.1525L102.774 96.1797L96.4021 90.8329C96.112 90.5894 95.859 90.4489 95.6433 90.4113C95.4281 90.379 95.2398 90.409 95.0785 90.5011C94.9176 90.5985 94.7739 90.7226 94.6473 90.8735C94.5523 90.9867 94.4802 91.0844 94.431 91.1667C94.3846 91.2514 94.3475 91.3192 94.3197 91.37L93.2216 90.8047C93.254 90.7131 93.3094 90.594 93.388 90.4473C93.4637 90.2982 93.5819 90.1279 93.7426 89.9364C93.986 89.6462 94.287 89.4142 94.6456 89.2403C95.0016 89.0693 95.384 88.9996 95.7928 89.031C96.1991 89.0654 96.5967 89.2457 96.9855 89.572L103.636 95.1525Z" fill="white"/>
<path d="M91.2288 101.647L91.9324 100.612C92.1195 100.717 92.3305 100.795 92.5654 100.845C92.7998 100.9 93.053 100.895 93.3248 100.83C93.5967 100.765 93.8821 100.608 94.1809 100.357C94.5901 100.014 94.8519 99.6331 94.9664 99.2157C95.0804 98.8035 95.0169 98.4538 94.7759 98.1666C94.5616 97.9112 94.2995 97.7874 93.9896 97.7953C93.6798 97.8031 93.2861 97.9233 92.8087 98.1558L91.6118 98.7447C90.8923 99.1012 90.2606 99.253 89.7168 99.2C89.1754 99.1499 88.7087 98.8913 88.3167 98.4242C87.9953 98.0411 87.8182 97.6062 87.7855 97.1194C87.7499 96.635 87.855 96.1414 88.1006 95.6386C88.3462 95.1358 88.7288 94.6665 89.2482 94.2307C89.9301 93.6585 90.6186 93.3329 91.3138 93.2539C92.009 93.1749 92.6547 93.3699 93.2509 93.8388L92.4805 94.9006C92.0857 94.6187 91.6837 94.4962 91.2745 94.533C90.8624 94.5722 90.446 94.7683 90.0252 95.1214C89.5465 95.5231 89.2516 95.9436 89.1405 96.3829C89.029 96.8276 89.0938 97.1935 89.3348 97.4808C89.5296 97.7129 89.774 97.8392 90.068 97.8595C90.3644 97.8828 90.7138 97.7923 91.1161 97.5882L92.4495 96.9144C93.1835 96.5458 93.8219 96.3933 94.3649 96.4569C94.9073 96.5259 95.3721 96.791 95.7592 97.2524C96.0758 97.6296 96.2498 98.0522 96.2815 98.5201C96.3103 98.9904 96.2098 99.4629 95.98 99.9375C95.7474 100.415 95.396 100.85 94.926 101.245C94.2644 101.8 93.6232 102.091 93.0025 102.117C92.3789 102.146 91.7877 101.989 91.2288 101.647Z" fill="white"/>
<path d="M73.9716 111.466L75.2957 110.984C75.5126 111.337 75.7714 111.621 76.0721 111.838C76.3693 112.057 76.6923 112.213 77.0412 112.308C77.3878 112.408 77.7466 112.446 78.1174 112.424C78.4883 112.402 78.8553 112.325 79.2183 112.193C79.8804 111.952 80.4193 111.566 80.8349 111.036C81.2471 110.507 81.493 109.859 81.5727 109.093C81.6489 108.327 81.5146 107.471 81.17 106.524C80.8254 105.577 80.3779 104.835 79.8276 104.298C79.2738 103.762 78.669 103.424 78.0133 103.284C77.354 103.145 76.6934 103.196 76.0313 103.437C75.6682 103.569 75.3376 103.745 75.0392 103.967C74.7409 104.188 74.4904 104.447 74.2875 104.742C74.0825 105.043 73.9363 105.372 73.849 105.73C73.7595 106.093 73.7442 106.478 73.8032 106.884L72.4791 107.366C72.3754 106.771 72.3749 106.204 72.4776 105.667C72.5804 105.13 72.7712 104.635 73.05 104.183C73.3301 103.734 73.6849 103.341 74.1142 103.004C74.54 102.667 75.0287 102.399 75.5805 102.198C76.513 101.858 77.4253 101.784 78.3172 101.976C79.2092 102.167 80.0163 102.607 80.7385 103.295C81.4607 103.984 82.0317 104.905 82.4514 106.058C82.8712 107.211 83.0257 108.284 82.915 109.275C82.8043 110.267 82.4688 111.123 81.9085 111.842C81.3482 112.562 80.6017 113.092 79.6692 113.431C79.1175 113.632 78.5704 113.741 78.028 113.757C77.4821 113.774 76.957 113.699 76.4527 113.532C75.9498 113.368 75.4863 113.114 75.0622 112.768C74.6395 112.426 74.2759 111.992 73.9716 111.466Z" fill="white"/>
<path d="M69.9732 104.016L71.4887 112.611L70.2129 112.836L69.984 111.538L69.8945 111.553C69.8128 112.006 69.5902 112.401 69.2265 112.738C68.8629 113.076 68.4237 113.29 67.9089 113.38C67.8119 113.398 67.6903 113.417 67.5442 113.439C67.3981 113.461 67.287 113.475 67.2111 113.48L66.9743 112.138C67.0211 112.141 67.1266 112.14 67.2909 112.134C67.4522 112.132 67.6205 112.116 67.7959 112.085C68.2136 112.011 68.5712 111.858 68.8686 111.625C69.1629 111.396 69.3782 111.112 69.5145 110.772C69.6477 110.437 69.6801 110.076 69.6117 109.688L68.6527 104.249L69.9732 104.016Z" fill="white"/>
<path d="M60.6136 104.818C61.4545 104.818 62.1799 105.004 62.7898 105.375C63.3958 105.75 63.8636 106.273 64.1932 106.943C64.5189 107.617 64.6818 108.402 64.6818 109.295C64.6818 110.189 64.5189 110.977 64.1932 111.659C63.8636 112.345 63.4053 112.879 62.8182 113.261C62.2273 113.648 61.5379 113.841 60.75 113.841C60.2955 113.841 59.8466 113.765 59.4034 113.614C58.9602 113.462 58.5568 113.216 58.1932 112.875C57.8295 112.538 57.5398 112.091 57.3239 111.534C57.108 110.977 57 110.292 57 109.477V108.909H63.7273V110.068H58.3636C58.3636 110.561 58.4621 111 58.6591 111.386C58.8523 111.773 59.1288 112.078 59.4886 112.301C59.8447 112.525 60.2652 112.636 60.75 112.636C61.2841 112.636 61.7462 112.504 62.1364 112.239C62.5227 111.977 62.8201 111.636 63.0284 111.216C63.2367 110.795 63.3409 110.345 63.3409 109.864V109.091C63.3409 108.432 63.2273 107.873 63 107.415C62.7689 106.96 62.4489 106.614 62.0398 106.375C61.6307 106.14 61.1553 106.023 60.6136 106.023C60.2614 106.023 59.9432 106.072 59.6591 106.17C59.3712 106.273 59.1231 106.424 58.9148 106.625C58.7064 106.83 58.5455 107.083 58.4318 107.386L57.1364 107.023C57.2727 106.583 57.5019 106.197 57.8239 105.864C58.1458 105.534 58.5436 105.277 59.017 105.091C59.4905 104.909 60.0227 104.818 60.6136 104.818Z" fill="white"/>
<path d="M53.9943 104.332C54.5389 104.428 55.0151 104.617 55.4229 104.901C55.8299 105.188 56.1295 105.551 56.3215 105.988C56.5129 106.43 56.5593 106.93 56.4606 107.49C56.3738 107.982 56.2064 108.364 55.9585 108.636C55.71 108.911 55.4079 109.108 55.0525 109.226C54.697 109.344 54.3159 109.412 53.9091 109.428C53.4979 109.448 53.0881 109.449 52.6798 109.431C52.1457 109.406 51.7134 109.382 51.3829 109.358C51.0481 109.337 50.7985 109.357 50.6342 109.416C50.4661 109.475 50.3633 109.611 50.3258 109.824L50.3179 109.868C50.2206 110.42 50.296 110.876 50.5442 111.235C50.7887 111.594 51.215 111.827 51.823 111.934C52.4534 112.045 52.9721 111.994 53.3788 111.781C53.7856 111.568 54.0894 111.318 54.2901 111.03L55.4646 111.699C55.1487 112.182 54.7786 112.536 54.3542 112.761C53.9255 112.989 53.479 113.122 53.0147 113.159C52.546 113.2 52.0953 113.182 51.6626 113.106C51.3865 113.057 51.0754 112.967 50.7291 112.837C50.3784 112.71 50.053 112.516 49.7528 112.255C49.4488 111.994 49.2208 111.64 49.0687 111.194C48.9166 110.748 48.9007 110.184 49.0211 109.501L50.0196 103.839L51.3401 104.071L51.1349 105.235L51.202 105.247C51.3244 105.076 51.5088 104.903 51.7552 104.727C52.0016 104.552 52.3114 104.42 52.6847 104.332C53.0579 104.244 53.4944 104.244 53.9943 104.332ZM53.5837 105.482C53.0615 105.39 52.6032 105.415 52.2089 105.557C51.8109 105.699 51.4919 105.916 51.2519 106.208C51.0081 106.5 50.8547 106.824 50.7915 107.182L50.5784 108.391C50.6462 108.334 50.7801 108.294 50.9803 108.272C51.176 108.252 51.4006 108.244 51.654 108.246C51.9031 108.252 52.1458 108.26 52.3824 108.271C52.6145 108.285 52.8031 108.295 52.9482 108.301C53.2993 108.317 53.6329 108.301 53.9491 108.253C54.2609 108.208 54.5256 108.102 54.7433 107.937C54.9565 107.775 55.0927 107.526 55.1519 107.19C55.2329 106.731 55.1243 106.354 54.8263 106.059C54.5239 105.767 54.1097 105.575 53.5837 105.482Z" fill="white"/>
<path d="M40.3943 109.825L40.783 108.758L45.033 110.304L44.6443 111.372L40.3943 109.825ZM42.6905 112.886L41.4304 112.428L44.2754 104.611C44.405 104.255 44.4506 103.969 44.4121 103.754C44.3688 103.541 44.2763 103.374 44.1346 103.254C43.988 103.136 43.8222 103.043 43.6371 102.976C43.4983 102.925 43.3818 102.891 43.2876 102.873C43.1922 102.858 43.1158 102.847 43.0585 102.838L43.2142 101.613C43.3113 101.612 43.4422 101.623 43.6069 101.647C43.7729 101.667 43.9734 101.72 44.2083 101.805C44.5643 101.935 44.8852 102.138 45.1712 102.416C45.4537 102.692 45.65 103.027 45.7602 103.422C45.8669 103.816 45.8335 104.251 45.6599 104.728L42.6905 112.886Z" fill="white"/>
<path d="M38.4393 98.9374C39.1675 99.3579 39.7029 99.8813 40.0455 100.508C40.3828 101.135 40.5266 101.822 40.4767 102.567C40.4217 103.314 40.1708 104.075 39.7238 104.849C39.2768 105.623 38.7418 106.224 38.1188 106.652C37.4906 107.081 36.8266 107.314 36.1269 107.352C35.4219 107.391 34.7283 107.213 34.046 106.82C33.6524 106.592 33.3015 106.302 32.9935 105.949C32.6854 105.597 32.4592 105.182 32.3147 104.705C32.1683 104.231 32.1409 103.699 32.2323 103.109C32.3237 102.519 32.573 101.871 32.9802 101.165L33.2643 100.673L39.0903 104.037L38.5108 105.041L33.8657 102.359C33.6195 102.786 33.4851 103.215 33.4625 103.648C33.4366 104.08 33.5236 104.482 33.7235 104.855C33.9201 105.227 34.2284 105.534 34.6483 105.776C35.1108 106.043 35.5773 106.16 36.0478 106.125C36.513 106.092 36.941 105.945 37.3317 105.685C37.7223 105.425 38.0379 105.087 38.2784 104.671L38.6648 104.001C38.9943 103.431 39.1753 102.89 39.2076 102.379C39.2348 101.87 39.1309 101.41 38.8959 100.999C38.6591 100.591 38.3061 100.251 37.837 99.9806C37.5319 99.8045 37.2317 99.688 36.9365 99.6313C36.636 99.5759 36.3454 99.583 36.0646 99.6527C35.7819 99.7257 35.5156 99.865 35.2657 100.071L34.3256 99.108C34.6634 98.7956 35.055 98.5756 35.5005 98.4479C35.9441 98.3235 36.4174 98.2993 36.9202 98.3753C37.4212 98.4546 37.9275 98.642 38.4393 98.9374Z" fill="white"/>
<path d="M30.4667 88.8459C30.6128 89.02 30.7285 89.1874 30.814 89.3481C30.9023 89.5064 30.9553 89.6227 30.973 89.6968L29.8485 90.1953C29.703 89.8922 29.5412 89.6522 29.3631 89.4753C29.1849 89.2984 28.9569 89.2005 28.6789 89.1815C28.4015 89.1572 28.0406 89.2252 27.5964 89.3853L26.9134 89.632L22.2676 97.7432L21.3326 96.629L25.1116 90.3132L25.0531 90.2436L18.1771 92.8684L17.2421 91.7542L27.2838 88.1641C27.7362 88.0021 28.1548 87.9204 28.5394 87.9191C28.9268 87.9153 29.2804 87.992 29.6001 88.149C29.9173 88.3031 30.2062 88.5354 30.4667 88.8459Z" fill="white"/>
<path d="M22.2332 82.856C22.6271 83.5383 22.8104 84.2307 22.7829 84.9333C22.7536 85.6325 22.5304 86.295 22.1131 86.9208C21.694 87.5433 21.094 88.08 20.3133 88.5307C19.526 88.9853 18.7564 89.2394 18.0044 89.293C17.2506 89.3433 16.5635 89.2064 15.9433 88.8821C15.3212 88.5546 14.8132 88.0497 14.4192 87.3674C14.0253 86.685 13.843 85.9942 13.8723 85.295C13.8997 84.5925 14.1246 83.929 14.547 83.3046C14.9676 82.6769 15.5715 82.1358 16.3588 81.6813C17.1395 81.2305 17.9052 80.9809 18.6557 80.9324C19.4044 80.8807 20.0898 81.0186 20.7119 81.3461C21.3321 81.6704 21.8392 82.1737 22.2332 82.856ZM21.19 83.4583C20.8907 82.94 20.5117 82.5902 20.0528 82.409C19.5939 82.2278 19.1015 82.1819 18.5757 82.2711C18.0499 82.3604 17.5344 82.5508 17.0292 82.8425C16.524 83.1342 16.0997 83.4863 15.7562 83.899C15.4127 84.3116 15.2031 84.7629 15.1273 85.2528C15.0515 85.7427 15.1632 86.2468 15.4624 86.7651C15.7617 87.2834 16.1424 87.6322 16.6045 87.8115C17.0667 87.9908 17.5623 88.0348 18.0914 87.9437C18.6205 87.8525 19.1377 87.6611 19.6429 87.3695C20.148 87.0778 20.5707 86.7266 20.9109 86.3159C21.2512 85.9051 21.4575 85.4557 21.5301 84.9677C21.6026 84.4797 21.4892 83.9766 21.19 83.4583Z" fill="white"/>
<path d="M14.7399 75.3171L9.89193 77.0816L9.43332 75.8216L17.6343 72.8367L18.0929 74.0967L16.7047 74.602L16.7358 74.6874C17.2222 74.7281 17.6852 74.8981 18.1248 75.1977C18.5608 75.4985 18.8915 75.9586 19.1169 76.578C19.3035 77.0905 19.3572 77.5869 19.278 78.0672C19.1953 78.5488 18.9676 78.9864 18.5949 79.38C18.2187 79.7749 17.6817 80.0994 16.9841 80.3533L11.773 82.2499L11.3144 80.9899L16.44 79.1243C17.038 78.9067 17.4541 78.5658 17.6882 78.1017C17.9211 77.634 17.9423 77.1385 17.7519 76.6153C17.6379 76.302 17.4418 76.0126 17.1638 75.747C16.8844 75.4778 16.5391 75.2931 16.1277 75.1929C15.7151 75.0892 15.2525 75.1306 14.7399 75.3171Z" fill="white"/>
<path d="M16.9843 69.973L8.38961 71.4885L8.16466 70.2127L9.46281 69.9838L9.44703 69.8943C8.99414 69.8126 8.5991 69.5899 8.26189 69.2263C7.92468 68.8627 7.71069 68.4235 7.61992 67.9087C7.60282 67.8117 7.58331 67.6901 7.56139 67.544C7.53947 67.3978 7.52566 67.2868 7.51996 67.2109L8.86288 66.9741C8.85958 67.0208 8.86089 67.1264 8.86679 67.2907C8.8683 67.452 8.88452 67.6203 8.91543 67.7956C8.9891 68.2134 9.14254 68.571 9.37575 68.8684C9.60457 69.1626 9.88869 69.3779 10.2281 69.5143C10.5632 69.6475 10.9247 69.6799 11.3126 69.6115L16.7515 68.6525L16.9843 69.973Z" fill="white"/>
<path d="M5.27212 50.4387L16.7317 52.4594L16.487 53.847L5.02744 51.8264L5.27212 50.4387Z" fill="white"/>
<path d="M12.9183 45.7698L17.8517 47.5653L17.3931 48.8254L9.19212 45.8405L9.63519 44.6232L10.9166 45.0896L10.9555 44.9828C10.609 44.639 10.3806 44.2253 10.2704 43.7418C10.1566 43.257 10.2124 42.7049 10.4379 42.0856C10.64 41.5303 10.9307 41.0859 11.3101 40.7524C11.6859 40.4175 12.1455 40.218 12.6889 40.1537C13.2287 40.0882 13.8474 40.1824 14.5451 40.4363L19.7561 42.333L19.2975 43.593L14.1719 41.7275C13.5276 41.493 12.9649 41.4776 12.4836 41.6813C11.9987 41.8838 11.6501 42.2769 11.4376 42.8606C11.2912 43.2628 11.2476 43.6541 11.3067 44.0344C11.3671 44.4111 11.5316 44.7511 11.8001 45.0544C12.0686 45.3577 12.4413 45.5962 12.9183 45.7698Z" fill="white"/>
<path d="M16.1995 37.7311L20.7462 40.3561L20.0757 41.5174L12.5177 37.1537L13.1654 36.0318L14.3463 36.7136L14.4031 36.6152C14.1216 36.2165 13.9686 35.7695 13.944 35.2742C13.9161 34.7769 14.067 34.2429 14.3965 33.6722C14.692 33.1604 15.0555 32.7732 15.487 32.5107C15.9153 32.2462 16.4025 32.1295 16.9488 32.1606C17.4918 32.1898 18.0848 32.39 18.7277 32.7612L23.5302 35.5339L22.8598 36.6952L18.136 33.9679C17.5423 33.6251 16.9907 33.5122 16.4814 33.6293C15.9687 33.7445 15.5571 34.071 15.2465 34.609C15.0325 34.9797 14.9216 35.3574 14.9137 35.7422C14.9078 36.1237 15.0107 36.4871 15.2225 36.8324C15.4343 37.1777 15.7599 37.4773 16.1995 37.7311Z" fill="white"/>
<path d="M26.4043 32.1869C25.8979 32.7905 25.3099 33.1995 24.6404 33.414C23.9733 33.6256 23.2744 33.6424 22.5436 33.4644C21.8153 33.2834 21.1058 32.9032 20.4152 32.3237C19.7188 31.7394 19.2168 31.1031 18.9092 30.4148C18.6041 29.7236 18.4978 29.0312 18.5904 28.3375C18.6854 27.6408 18.9861 26.9908 19.4925 26.3872C19.999 25.7837 20.5857 25.3761 21.2528 25.1645C21.9224 24.9499 22.6227 24.9344 23.354 25.1178C24.0876 25.2982 24.8027 25.6807 25.4991 26.265C26.1897 26.8445 26.6861 27.4786 26.9883 28.1674C27.293 28.8532 27.3978 29.5444 27.3028 30.241C27.2103 30.9347 26.9108 31.5834 26.4043 32.1869ZM25.4816 31.4126C25.8663 30.9542 26.0653 30.4784 26.0786 29.9852C26.0919 29.492 25.9667 29.0136 25.703 28.55C25.4393 28.0864 25.084 27.6672 24.6372 27.2922C24.1903 26.9172 23.7143 26.6389 23.209 26.4573C22.7038 26.2757 22.208 26.233 21.7217 26.3293C21.2355 26.4256 20.8 26.703 20.4153 27.1615C20.0306 27.6199 19.833 28.097 19.8226 28.5926C19.8122 29.0882 19.9403 29.5691 20.2069 30.0351C20.4735 30.5011 20.8303 30.9216 21.2771 31.2965C21.724 31.6715 22.1986 31.9486 22.7009 32.1278C23.2032 32.307 23.6961 32.3472 24.1795 32.2485C24.6629 32.1497 25.0969 31.8711 25.4816 31.4126Z" fill="white"/>
<path d="M29.2461 17.2421L32.3836 26.002L31.339 26.8785L23.257 22.2675L24.3712 21.3325L30.687 25.1115L30.7566 25.053L28.1318 18.177L29.2461 17.2421Z" fill="white"/>
<path d="M37.3092 22.7412C36.8302 23.0177 36.3435 23.1785 35.8489 23.2234C35.3525 23.2651 34.8901 23.18 34.4616 22.9682C34.0312 22.753 33.6739 22.3994 33.3899 21.9073C33.1399 21.4743 33.0225 21.0741 33.0378 20.7066C33.0512 20.3359 33.156 19.991 33.3524 19.672C33.5488 19.3531 33.7974 19.0565 34.0983 18.7821C34.4006 18.5027 34.714 18.2386 35.0384 17.9901C35.4636 17.6659 35.8104 17.4066 36.0787 17.2123C36.3484 17.0128 36.5271 16.8375 36.6148 16.6863C36.7057 16.5332 36.6972 16.3632 36.5893 16.1762L36.5665 16.1368C36.2862 15.6513 35.9356 15.3508 35.5146 15.2352C35.0968 15.1177 34.6206 15.2133 34.0859 15.522C33.5315 15.8421 33.1669 16.2144 32.9922 16.639C32.8174 17.0636 32.7456 17.4506 32.7768 17.8L31.4473 18.0427C31.3789 17.4698 31.4349 16.9607 31.6152 16.5155C31.7969 16.065 32.0536 15.6763 32.3853 15.3492C32.7183 15.0169 33.0751 14.741 33.4556 14.5213C33.6984 14.3811 33.9943 14.2497 34.3433 14.1269C34.6937 13.9989 35.0676 13.9383 35.4651 13.945C35.8659 13.9498 36.2679 14.0742 36.6712 14.3181C37.0745 14.562 37.4494 14.9841 37.796 15.5844L40.671 20.5641L39.5097 21.2345L38.9188 20.2111L38.8598 20.2451C38.8757 20.4546 38.8458 20.7059 38.7701 20.9989C38.6943 21.292 38.5418 21.5922 38.3125 21.8995C38.0832 22.2069 37.7487 22.4874 37.3092 22.7412ZM36.884 21.5958C37.3433 21.3306 37.6783 21.0169 37.889 20.6547C38.1031 20.2906 38.2081 19.9194 38.204 19.5412C38.2033 19.1611 38.112 18.8136 37.9302 18.4987L37.3165 17.4358C37.3014 17.5233 37.2244 17.6399 37.0855 17.7857C36.948 17.9263 36.7814 18.0772 36.5858 18.2383C36.3915 18.3942 36.2002 18.544 36.012 18.6876C35.8251 18.8261 35.6741 18.9396 35.5589 19.0279C35.2799 19.2416 35.0347 19.4684 34.8234 19.7085C34.6135 19.9434 34.4783 20.1942 34.418 20.4608C34.359 20.7223 34.4147 21.0007 34.5852 21.2959C34.8182 21.6994 35.1436 21.9183 35.5614 21.9526C35.9806 21.9818 36.4215 21.8628 36.884 21.5958Z" fill="white"/>
<path d="M44.1958 9.79093L44.5845 10.8588L40.3345 12.4056L39.9458 11.3378L44.1958 9.79093ZM40.4694 8.92214L41.7294 8.46352L44.5744 16.2801C44.704 16.636 44.8527 16.8842 45.0207 17.0246C45.191 17.1601 45.369 17.2284 45.5548 17.2293C45.7428 17.2253 45.9294 17.1897 46.1144 17.1223C46.2533 17.0718 46.3646 17.0232 46.4484 16.9766C46.5309 16.9264 46.5969 16.8862 46.6464 16.8561L47.3147 17.8948C47.2409 17.9579 47.1333 18.0333 46.9919 18.1211C46.8518 18.2124 46.6643 18.3008 46.4294 18.3863C46.0734 18.5158 45.6968 18.5663 45.2993 18.5376C44.9055 18.5076 44.5394 18.3768 44.2012 18.1452C43.8665 17.9123 43.6123 17.5573 43.4387 17.0804L40.4694 8.92214Z" fill="white"/>
<path d="M52.0117 16.8102L50.4961 8.21553L51.8167 7.98268L53.3322 16.5774L52.0117 16.8102ZM50.915 6.66468C50.6576 6.71007 50.4202 6.66154 50.2028 6.51911C49.9891 6.37601 49.8605 6.18136 49.8171 5.93516C49.7737 5.68896 49.8279 5.46208 49.9798 5.25452C50.1354 5.04631 50.3419 4.91951 50.5993 4.87412C50.8567 4.82874 51.0922 4.87759 51.3059 5.02069C51.5234 5.16312 51.6538 5.35744 51.6972 5.60364C51.7406 5.84985 51.6845 6.07705 51.5289 6.28527C51.377 6.49282 51.1724 6.6193 50.915 6.66468Z" fill="white"/>
<path d="M60.2727 16.1818C59.4848 16.1818 58.7936 15.9943 58.1989 15.6193C57.608 15.2443 57.1458 14.7197 56.8125 14.0455C56.483 13.3712 56.3182 12.5833 56.3182 11.6818C56.3182 10.7727 56.483 9.97917 56.8125 9.30114C57.1458 8.62311 57.608 8.09659 58.1989 7.72159C58.7936 7.34659 59.4848 7.15909 60.2727 7.15909C61.0606 7.15909 61.75 7.34659 62.3409 7.72159C62.9356 8.09659 63.3977 8.62311 63.7273 9.30114C64.0606 9.97917 64.2273 10.7727 64.2273 11.6818C64.2273 12.5833 64.0606 13.3712 63.7273 14.0455C63.3977 14.7197 62.9356 15.2443 62.3409 15.6193C61.75 15.9943 61.0606 16.1818 60.2727 16.1818ZM60.2727 14.9773C60.8712 14.9773 61.3636 14.8239 61.75 14.517C62.1364 14.2102 62.4223 13.8068 62.608 13.3068C62.7936 12.8068 62.8864 12.2652 62.8864 11.6818C62.8864 11.0985 62.7936 10.5549 62.608 10.0511C62.4223 9.54735 62.1364 9.14015 61.75 8.82955C61.3636 8.51894 60.8712 8.36364 60.2727 8.36364C59.6742 8.36364 59.1818 8.51894 58.7955 8.82955C58.4091 9.14015 58.1231 9.54735 57.9375 10.0511C57.7519 10.5549 57.6591 11.0985 57.6591 11.6818C57.6591 12.2652 57.7519 12.8068 57.9375 13.3068C58.1231 13.8068 58.4091 14.2102 58.7955 14.517C59.1818 14.8239 59.6742 14.9773 60.2727 14.9773Z" fill="white"/>
<path d="M66.7443 11.0836L65.8326 16.2538L64.512 16.021L66.0276 7.42631L67.3033 7.65127L67.0665 8.99419L67.1784 9.01392C67.4568 8.61299 67.8246 8.31628 68.2816 8.12378C68.7393 7.92755 69.2927 7.88666 69.9418 8.00112C70.5237 8.10373 71.0118 8.31289 71.4062 8.62859C71.8012 8.94056 72.0775 9.35853 72.2351 9.88249C72.3934 10.4027 72.4081 11.0284 72.2791 11.7596L71.3162 17.2208L69.9956 16.9879L70.9428 11.6162C71.0619 10.9411 70.9793 10.3842 70.6951 9.94557C70.4115 9.50324 69.9639 9.22814 69.3521 9.12027C68.9306 9.04594 68.5377 9.0709 68.1735 9.19514C67.813 9.32004 67.5067 9.54105 67.2546 9.85815C67.0025 10.1753 66.8324 10.5837 66.7443 11.0836Z" fill="white"/>
<path d="M88.8653 15.4151L88.2971 16.3993L84.3803 14.1379L84.9485 13.1538L88.8653 15.4151ZM87.1355 12.0021L88.2968 12.6725L84.1377 19.8763C83.9483 20.2043 83.8538 20.4778 83.8543 20.6968C83.8599 20.9143 83.922 21.0946 84.0407 21.2374C84.1646 21.3789 84.3118 21.4989 84.4824 21.5974C84.6104 21.6713 84.7191 21.7253 84.8087 21.7596C84.9002 21.7905 84.9734 21.8153 85.0283 21.8338L84.6622 23.0134C84.5664 22.9974 84.4395 22.9635 84.2814 22.9116C84.1214 22.863 83.9331 22.7761 83.7166 22.6511C83.3886 22.4617 83.1078 22.2056 82.8743 21.8827C82.6441 21.5618 82.509 21.1973 82.469 20.7893C82.4323 20.3832 82.5408 19.9603 82.7946 19.5208L87.1355 12.0021Z" fill="white"/>
<path d="M88.813 26.4042C88.2095 25.8978 87.8004 25.3098 87.5859 24.6403C87.3743 23.9732 87.3575 23.2743 87.5355 22.5435C87.7165 21.8152 88.0967 21.1057 88.6762 20.4151C89.2605 19.7187 89.8968 19.2167 90.5851 18.9091C91.2763 18.604 91.9687 18.4977 92.6624 18.5903C93.3591 18.6853 94.0091 18.986 94.6127 19.4924C95.2162 19.9988 95.6238 20.5856 95.8354 21.2527C96.05 21.9222 96.0655 22.6226 95.8822 23.3538C95.7017 24.0875 95.3193 24.8025 94.7349 25.499C94.1554 26.1896 93.5213 26.686 92.8326 26.9882C92.1467 27.2929 91.4555 27.3977 90.7589 27.3027C90.0652 27.2102 89.4166 26.9107 88.813 26.4042ZM89.5873 25.4815C90.0457 25.8662 90.5216 26.0652 91.0148 26.0785C91.508 26.0918 91.9863 25.9666 92.4499 25.7029C92.9135 25.4392 93.3328 25.0839 93.7077 24.637C94.0827 24.1902 94.361 23.7141 94.5426 23.2089C94.7243 22.7037 94.7669 22.2079 94.6706 21.7216C94.5743 21.2353 94.2969 20.7998 93.8384 20.4151C93.38 20.0305 92.9029 19.8329 92.4073 19.8225C91.9117 19.8121 91.4308 19.9402 90.9648 20.2068C90.4988 20.4734 90.0783 20.8302 89.7034 21.277C89.3284 21.7239 89.0513 22.1985 88.8721 22.7008C88.6929 23.2031 88.6527 23.696 88.7514 24.1794C88.8502 24.6628 89.1288 25.0968 89.5873 25.4815Z" fill="white"/>
<path d="M97.493 35.5732L107.57 29.755L108.275 30.9753L99.2801 36.1685L101.985 40.8529L100.902 41.4779L97.493 35.5732Z" fill="white"/>
<path d="M102.052 44.554L110.253 41.5692L110.711 42.8292L102.511 45.8141L102.052 44.554ZM111.853 41.7124C111.763 41.4668 111.77 41.2245 111.873 40.9857C111.976 40.7504 112.146 40.59 112.381 40.5045C112.616 40.419 112.848 40.433 113.079 40.5465C113.311 40.6636 113.472 40.8449 113.561 41.0905C113.651 41.3361 113.644 41.5766 113.54 41.8119C113.437 42.0507 113.269 42.2129 113.034 42.2984C112.799 42.3839 112.565 42.3681 112.333 42.2511C112.102 42.1375 111.942 41.958 111.853 41.7124Z" fill="white"/>
<path d="M113.286 53.3387L112.167 53.536L111.35 48.903L112.469 48.7056L113.286 53.3387ZM104.119 51.6088L113.9 49.8841C114.392 49.7973 114.823 49.8406 115.192 50.014C115.561 50.1874 115.86 50.4443 116.089 50.7846C116.319 51.125 116.469 51.5004 116.542 51.9107C116.599 52.2352 116.62 52.5047 116.604 52.7191C116.587 52.9334 116.566 53.0949 116.539 53.2035L115.33 53.0243C115.341 52.9532 115.352 52.855 115.365 52.7298C115.378 52.6082 115.368 52.4523 115.334 52.262C115.257 51.8256 115.092 51.5298 114.838 51.3746C114.584 51.2232 114.244 51.1849 113.819 51.2599L104.352 52.9293L104.119 51.6088Z" fill="white"/>
<path d="M104.818 60.3864C104.818 59.5455 105.004 58.8201 105.375 58.2102C105.75 57.6042 106.273 57.1364 106.943 56.8068C107.617 56.4811 108.402 56.3182 109.295 56.3182C110.189 56.3182 110.977 56.4811 111.659 56.8068C112.345 57.1364 112.879 57.5947 113.261 58.1818C113.648 58.7727 113.841 59.4621 113.841 60.25C113.841 60.7045 113.765 61.1534 113.614 61.5966C113.462 62.0398 113.216 62.4432 112.875 62.8068C112.538 63.1705 112.091 63.4602 111.534 63.6761C110.977 63.892 110.292 64 109.477 64H108.909V57.2727H110.068V62.6364C110.561 62.6364 111 62.5379 111.386 62.3409C111.773 62.1477 112.078 61.8712 112.301 61.5114C112.525 61.1553 112.636 60.7348 112.636 60.25C112.636 59.7159 112.504 59.2538 112.239 58.8636C111.977 58.4773 111.636 58.1799 111.216 57.9716C110.795 57.7633 110.345 57.6591 109.864 57.6591H109.091C108.432 57.6591 107.873 57.7727 107.415 58C106.96 58.2311 106.614 58.5511 106.375 58.9602C106.14 59.3693 106.023 59.8447 106.023 60.3864C106.023 60.7386 106.072 61.0568 106.17 61.3409C106.273 61.6288 106.424 61.8769 106.625 62.0852C106.83 62.2936 107.083 62.4545 107.386 62.5682L107.023 63.8636C106.583 63.7273 106.197 63.4981 105.864 63.1761C105.534 62.8542 105.277 62.4564 105.091 61.983C104.909 61.5095 104.818 60.9773 104.818 60.3864Z" fill="white"/>
<g clip-path="url(#clip0_222_1055)">
<path d="M30 60.4989C43.3757 61.2822 51.2791 62.1039 55.5876 66.4124C59.8961 70.7209 60.7178 78.6243 61.5011 92C62.2822 78.6243 63.1039 70.7209 67.4124 66.4124C71.7209 62.1039 79.6265 61.2822 93 60.4989C79.6265 59.7178 71.7231 58.8961 67.4124 54.5854C63.1016 50.2746 62.2822 42.3735 61.5011 29C60.7178 42.3735 59.8961 50.2769 55.5876 54.5854C51.2791 58.8939 43.3757 59.7178 30 60.4989Z" fill="#B2F824"/>
</g>
<defs>
<clipPath id="clip0_222_1055">
<rect width="61" height="61" fill="white" transform="translate(30 30)"/>
</clipPath>
</defs>
</svg>
