<svg width="656" height="660" viewBox="0 0 656 660" fill="none" xmlns="http://www.w3.org/2000/svg">
<g clip-path="url(#clip0_34_167)">
<rect width="660" height="660" rx="46" fill="#013AC9"/>
<g opacity="0.05">
<path d="M656.707 513.238C656.707 532.289 650.215 548.277 637.23 561.204C624.864 573.451 610.025 579.574 592.713 579.574C555.615 576.172 535.211 554.06 531.501 513.238V316.273H656.707V513.238ZM384.964 240.753H182.78C171.033 241.433 160.831 247.217 152.175 258.103C143.519 268.308 137.026 280.554 132.698 294.842C128.988 308.449 127.133 322.397 127.133 336.685C127.133 350.292 128.988 364.239 132.698 378.526C137.026 392.134 143.519 404.381 152.175 415.267C160.831 425.472 171.033 430.574 182.78 430.574H420.207C437.519 430.574 452.05 437.378 463.798 450.985C476.164 463.912 482.347 479.901 482.347 498.951C482.347 518.001 476.164 533.989 463.798 546.916C452.05 560.523 437.519 567.327 420.207 567.327H186.49C143.209 566.647 107.348 553.38 78.9062 527.526C51.0828 500.992 30.9871 471.396 18.6211 438.738C6.87356 405.401 1.00004 371.043 1 335.664C1 301.646 7.18287 268.308 19.5488 235.651C31.9148 202.313 52.0097 172.717 79.833 146.863C107.657 120.329 148.774 106.041 203.185 104H384.964V240.753Z" fill="white"/>
<path d="M655.633 300.746H416.739C410.111 300.746 404.739 295.373 404.739 288.746V104H583.424C624.718 104 658.022 137.796 657.417 179.085L655.633 300.746Z" fill="#B2F824"/>
</g>
<path d="M525.946 422.873C525.946 433.248 522.056 441.956 514.274 448.996C506.864 455.665 497.971 459 487.597 459C465.365 457.147 453.137 445.105 450.914 422.873V315.604H525.946V422.873ZM363.099 274.477H241.936C234.896 274.847 228.782 277.996 223.595 283.925C218.407 289.483 214.517 296.152 211.923 303.934C209.7 311.344 208.588 318.94 208.588 326.721C208.588 334.131 209.7 341.728 211.923 349.509C214.517 356.919 218.407 363.589 223.595 369.518C228.782 375.075 234.896 377.854 241.936 377.854H384.219C394.593 377.854 403.301 381.559 410.341 388.97C417.751 396.01 421.457 404.717 421.457 415.092C421.457 425.467 417.751 434.175 410.341 441.215C403.301 448.625 394.593 452.33 384.219 452.33H244.159C218.222 451.96 196.731 444.734 179.687 430.654C163.013 416.204 150.971 400.086 143.561 382.301C136.52 364.145 133 345.433 133 326.165C133 307.639 136.706 289.483 144.116 271.697C151.527 253.542 163.569 237.424 180.242 223.344C196.916 208.893 221.557 201.112 254.163 200H363.099V274.477Z" fill="white"/>
<path d="M525.303 307.149H386.949C380.322 307.149 374.949 301.776 374.949 295.149V200H451.828C493.164 200 526.485 233.863 525.818 275.193L525.303 307.149Z" fill="#B2F824"/>
<path d="M19 570.979H77V577.021H19V570.979Z" fill="#FEFEFE"/>
<path d="M51.0208 545L51.0208 603H44.9792L44.9792 545L51.0208 545Z" fill="#FEFEFE"/>
<path d="M70.6421 555.63L29.6299 596.642L25.3578 592.37L66.37 551.358L70.6421 555.63Z" fill="#FEFEFE"/>
<path d="M66.37 596.642L25.3578 555.63L29.6299 551.358L70.6421 592.37L66.37 596.642Z" fill="#FEFEFE"/>
</g>
<defs>
<clipPath id="clip0_34_167">
<rect width="656" height="660" fill="white"/>
</clipPath>
</defs>
</svg>
