<svg width="660" height="522" viewBox="0 0 660 522" fill="none" xmlns="http://www.w3.org/2000/svg">
<rect width="660" height="522" rx="46" fill="#013AC9"/>
<path fill-rule="evenodd" clip-rule="evenodd" d="M352.099 131H243.163C210.557 132.112 185.916 139.893 169.242 154.343C152.569 168.423 140.526 184.541 133.116 202.697C125.705 220.483 122 238.639 122 257.165C122 276.433 125.52 295.145 132.56 313.3C139.971 331.086 152.013 347.204 168.687 361.655C185.731 375.735 207.222 382.96 233.159 383.33H373.219C383.594 383.33 392.301 379.625 399.341 372.215C406.752 365.175 410.457 356.467 410.457 346.092C410.457 335.717 406.752 327.01 399.341 319.97C392.301 312.559 383.594 308.854 373.219 308.854H230.936C223.896 308.854 217.782 306.075 212.594 300.517C207.407 294.589 203.516 287.919 200.923 280.509C198.7 272.727 197.588 265.132 197.588 257.721C197.588 249.94 198.7 242.344 200.923 234.933C203.516 227.152 207.407 220.483 212.594 214.925C217.782 208.996 223.896 205.847 230.936 205.476H352.099V131ZM439.914 246.605V353.873C442.137 376.105 454.365 388.147 476.597 390C486.971 390 495.864 386.665 503.275 379.996C511.056 372.956 514.946 364.248 514.946 353.873V246.605H439.914Z" fill="white"/>
<path d="M514.303 238.149H375.949C369.322 238.149 363.949 232.776 363.949 226.149V131H440.828C482.164 131 515.485 164.863 514.818 206.193L514.303 238.149Z" fill="#B2F824"/>
</svg>
