<svg width="660" height="522" viewBox="0 0 660 522" fill="none" xmlns="http://www.w3.org/2000/svg">
<g clip-path="url(#clip0_34_167)">
<rect width="660" height="522" rx="46" fill="#013AC9"/>
<g opacity="0.05">
<path fill-rule="evenodd" clip-rule="evenodd" d="M383.964 7.00012L202.184 7.00012C147.774 9.04121 106.657 23.3288 78.8332 49.863C51.0097 75.7168 30.915 105.313 18.549 138.65C6.183 171.308 0 204.646 0 238.664C0 274.043 5.87385 308.401 17.6215 341.739C29.9875 374.396 50.0823 403.992 77.9058 430.526C106.348 456.38 142.209 469.647 185.49 470.328H419.207C436.52 470.328 451.05 463.524 462.798 449.917C475.164 436.99 481.347 421.001 481.347 401.951C481.347 382.901 475.164 366.912 462.798 353.985C451.05 340.378 436.52 333.574 419.207 333.574H181.78C170.032 333.574 159.831 328.472 151.174 318.266C142.518 307.38 136.026 295.134 131.698 281.527C127.988 267.239 126.133 253.292 126.133 239.684C126.133 225.397 127.988 211.449 131.698 197.842C136.026 183.554 142.518 171.308 151.174 161.102C159.831 150.217 170.032 144.434 181.78 143.753H383.964V7.00012ZM530.501 219.273V416.239C534.211 457.06 554.615 479.172 591.713 482.574C609.025 482.574 623.865 476.451 636.231 464.204C649.215 451.277 655.707 435.289 655.707 416.239V219.273H530.501Z" fill="white"/>
<path d="M654.633 203.746H415.739C409.111 203.746 403.739 198.373 403.739 191.746V6.99997H582.424C623.718 6.99997 657.022 40.7957 656.417 82.0845L654.633 203.746Z" fill="#B2F824"/>
</g>
<path fill-rule="evenodd" clip-rule="evenodd" d="M352.099 131H243.163C210.557 132.112 185.916 139.893 169.242 154.343C152.569 168.423 140.526 184.541 133.116 202.697C125.705 220.483 122 238.639 122 257.165C122 276.433 125.52 295.145 132.56 313.3C139.971 331.086 152.013 347.204 168.687 361.655C185.731 375.735 207.222 382.96 233.159 383.33H373.219C383.594 383.33 392.301 379.625 399.341 372.215C406.752 365.175 410.457 356.467 410.457 346.092C410.457 335.717 406.752 327.01 399.341 319.97C392.301 312.559 383.594 308.854 373.219 308.854H230.936C223.896 308.854 217.782 306.075 212.594 300.517C207.407 294.589 203.516 287.919 200.923 280.509C198.7 272.727 197.588 265.132 197.588 257.721C197.588 249.94 198.7 242.344 200.923 234.933C203.516 227.152 207.407 220.483 212.594 214.925C217.782 208.996 223.896 205.847 230.936 205.476H352.099V131ZM439.914 246.605V353.873C442.137 376.105 454.365 388.147 476.597 390C486.971 390 495.864 386.665 503.275 379.996C511.056 372.956 514.946 364.248 514.946 353.873V246.605H439.914Z" fill="white"/>
<path d="M514.303 238.149H375.949C369.322 238.149 363.949 232.776 363.949 226.149V131H440.828C482.164 131 515.485 164.863 514.818 206.193L514.303 238.149Z" fill="#B2F824"/>
<path d="M18 464.979H76V471.021H18V464.979Z" fill="#FEFEFE"/>
<path d="M50.0208 439L50.0208 497H43.9792L43.9792 439L50.0208 439Z" fill="#FEFEFE"/>
<path d="M69.6421 449.63L28.6299 490.642L24.3578 486.37L65.37 445.358L69.6421 449.63Z" fill="#FEFEFE"/>
<path d="M65.37 490.642L24.3578 449.63L28.6299 445.358L69.6421 486.37L65.37 490.642Z" fill="#FEFEFE"/>
</g>
<defs>
<clipPath id="clip0_34_167">
<rect width="660" height="522" fill="white"/>
</clipPath>
</defs>
</svg>
