<svg width="154" height="102" viewBox="0 0 154 102" fill="none" xmlns="http://www.w3.org/2000/svg">
<path fill-rule="evenodd" clip-rule="evenodd" d="M89.7519 0.660431H47.2606C34.5421 1.09401 24.931 4.1291 18.4273 9.76568C11.9235 15.2577 7.22639 21.5447 4.33583 28.6266C1.44528 35.5639 0 42.6458 0 49.8722C0 57.3876 1.37301 64.6862 4.11904 71.7681C7.0096 78.7055 11.7068 84.9924 18.2105 90.629C24.8588 96.121 33.2414 98.9393 43.3583 99.0839H97.9899C102.037 99.0839 105.433 97.6386 108.179 94.748C111.07 92.002 112.515 88.6056 112.515 84.5588C112.515 80.512 111.07 77.1156 108.179 74.3696C105.433 71.4791 102.037 70.0338 97.9899 70.0338H42.4912C39.7452 70.0338 37.3604 68.9498 35.3371 66.7819C33.3137 64.4695 31.7961 61.868 30.7844 58.9774C29.9173 55.9423 29.4837 52.9795 29.4837 50.0889C29.4837 47.0539 29.9173 44.091 30.7844 41.2005C31.7961 38.1654 33.3137 35.5639 35.3371 33.396C37.3604 31.0835 39.7452 29.855 42.4912 29.7105H89.7519V0.660431ZM124.005 45.7531V87.5939C124.872 96.2656 129.641 100.963 138.313 101.685C142.36 101.685 145.829 100.385 148.719 97.7831C151.754 95.0371 153.272 91.6407 153.272 87.5939V45.7531H124.005Z" fill="#2A2A2A"/>
<path d="M153.02 42.4547H106.374C99.7461 42.4547 94.3735 37.0822 94.3735 30.4547V0.660526H111.895C134.87 0.660526 153.391 19.4823 153.02 42.4547Z" fill="#B2F824"/>
</svg>
