<?xml version="1.0" encoding="UTF-8"?>
<svg id="Layer_1" xmlns="http://www.w3.org/2000/svg" version="1.1" viewBox="0 0 81 81">
  <!-- Generator: Adobe Illustrator 29.8.1, SVG Export Plug-In . SVG Version: 2.1.1 Build 2)  -->
  <defs>
    <style>
      .st0 {
        fill: #fff;
      }

      .st1 {
        fill: #2b64f5;
      }
    </style>
  </defs>
  <rect class="st1" x=".5" y=".87" width="80" height="80" rx="33.5" ry="33.5"/>
  <path class="st0" d="M34.99,32.59c1.1,0,2-.9,2-2s-.9-2-2-2v4ZM24.44,28.59c-1.1,0-2,.9-2,2s.9,2,2,2v-4ZM56.6,32.59c1.1,0,2-.9,2-2s-.9-2-2-2v4ZM45.54,28.59c-1.1,0-2,.9-2,2s.9,2,2,2v-4ZM37.66,27.07v2h5.2v-4h-5.2v2ZM44.59,28.81h-2v5.2h4v-5.2h-2ZM42.86,35.74v-2h-5.2v4h5.2v-2ZM35.92,34.01h2v-5.2h-4v5.2h2ZM37.66,35.74v-2c.15,0,.27.12.27.27h-4c0,2.06,1.67,3.73,3.73,3.73v-2ZM44.59,34.01h-2c0-.15.12-.27.27-.27v4c2.06,0,3.73-1.67,3.73-3.73h-2ZM42.86,27.07v2c-.15,0-.27-.12-.27-.27h4c0-2.06-1.67-3.73-3.73-3.73v2ZM37.66,27.07v-2c-2.06,0-3.73,1.67-3.73,3.73h4c0,.15-.12.27-.27.27v-2ZM23.83,45.83v2h5.2v-4h-5.2v2ZM30.77,47.56h-2v5.2h4v-5.2h-2ZM29.04,54.5v-2h-5.2v4h5.2v-2ZM22.1,52.76h2v-5.2h-4v5.2h2ZM23.83,54.5v-2c.15,0,.27.12.27.27h-4c0,2.06,1.67,3.73,3.73,3.73v-2ZM30.77,52.76h-2c0-.15.12-.27.27-.27v4c2.06,0,3.73-1.67,3.73-3.73h-2ZM29.04,45.83v2c-.15,0-.27-.12-.27-.27h4c0-2.06-1.67-3.73-3.73-3.73v2ZM23.83,45.83v-2c-2.06,0-3.73,1.67-3.73,3.73h4c0,.15-.12.27-.27.27v-2ZM51.96,45.83v2h5.2v-4h-5.2v2ZM58.9,47.56h-2v5.2h4v-5.2h-2ZM57.17,54.5v-2h-5.2v4h5.2v-2ZM50.23,52.76h2v-5.2h-4v5.2h2ZM51.96,54.5v-2c.15,0,.27.12.27.27h-4c0,2.06,1.67,3.73,3.73,3.73v-2ZM58.9,52.76h-2c0-.15.12-.27.27-.27v4c2.06,0,3.73-1.67,3.73-3.73h-2ZM57.17,45.83v2c-.15,0-.27-.12-.27-.27h4c0-2.06-1.67-3.73-3.73-3.73v2ZM51.96,45.83v-2c-2.06,0-3.73,1.67-3.73,3.73h4c0,.15-.12.27-.27.27v-2ZM34.99,30.59v-2h-10.55v4h10.55v-2ZM56.6,30.59v-2h-11.06v4h11.06v-2ZM26.79,43.48h-2v2.34h4v-2.34h-2ZM54.92,43.48h-2v2.34h4v-2.34h-2ZM26.79,43.48h2c0-4.46,2.42-8.36,6.03-10.45l-1-1.73-1-1.73c-4.8,2.77-8.03,7.97-8.03,13.91h2ZM47.88,31.3l-1,1.73c3.61,2.09,6.03,5.99,6.03,10.45h4c0-5.95-3.23-11.14-8.03-13.91l-1,1.73Z"/>
</svg>