<?xml version="1.0" encoding="UTF-8"?>
<svg id="Layer_1" xmlns="http://www.w3.org/2000/svg" version="1.1" viewBox="0 0 81 81">
  <!-- Generator: Adobe Illustrator 29.8.1, SVG Export Plug-In . SVG Version: 2.1.1 Build 2)  -->
  <defs>
    <style>
      .st0 {
        fill: #fff;
      }

      .st1 {
        fill: #2b64f5;
      }
    </style>
  </defs>
  <rect class="st1" x=".5" y=".87" width="80" height="80" rx="33.5" ry="33.5"/>
  <path class="st0" d="M51.37,34.02s-3.66,11.46-3.93,12.43c-.11-.97-2.77-21.57-2.77-21.57-6.24,0-9.56,4.42-11.31,9.14,0,0-4.44,11.5-4.8,12.48-.02-.91-.68-12.35-.68-12.35-.38-5.75-5.62-9.24-9.88-9.24l5.12,31.21c6.53-.02,10.04-4.44,11.88-9.14,0,0,3.91-10.15,4.08-10.62.04.44,2.81,19.75,2.81,19.75,6.53,0,10.07-4.14,11.97-8.67l9.14-22.56c-6.47,0-9.88,4.42-11.63,9.14Z"/>
</svg>